<svg width="123" height="36" viewBox="0 0 123 36" fill="none" xmlns="http://www.w3.org/2000/svg">
<path d="M18 0C14.4399 0 10.9598 1.05568 7.99974 3.03355C5.03966 5.01141 2.73255 7.82262 1.37017 11.1117C0.00779714 14.4008 -0.34866 18.02 0.345874 21.5116C1.04041 25.0033 2.75474 28.2106 5.27208 30.7279C7.78943 33.2453 10.9967 34.9596 14.4884 35.6541C17.98 36.3487 21.5992 35.9922 24.8883 34.6298C28.1774 33.2674 30.9886 30.9603 32.9665 28.0003C34.9443 25.0402 36 21.5601 36 18C36 15.6362 35.5344 13.2956 34.6298 11.1117C33.7252 8.92783 32.3994 6.94353 30.7279 5.27207C29.0565 3.60062 27.0722 2.27475 24.8883 1.37016C22.7044 0.465579 20.3638 0 18 0ZM30.4823 18.4777H23.4294V18.495L29.295 24.3606L26.4894 27.1644L21.5031 22.1781L21.4892 22.1902V30.484H17.5258V23.4311H17.5067L11.6429 29.295L8.83731 26.4911L13.8237 21.5065C13.8206 21.5012 13.8165 21.4964 13.8115 21.4927H5.5177V17.5258H12.5688C12.5688 17.5258 12.5688 17.5154 12.5688 17.5085L6.70154 11.6429L9.50539 8.83903L14.4935 13.8254L14.5056 13.8133V5.51942H18.4725V12.5723H18.4881L24.3554 6.70846L27.1592 9.5123L22.1729 14.4969L22.1833 14.5108H30.4788L30.4823 18.4777Z" fill="#F16253"/>
<path d="M22.1867 14.5108L22.1764 14.4987C21.2514 13.3951 19.9273 12.7025 18.4933 12.5723H18.476C18.3185 12.5585 18.161 12.5498 18 12.5498C16.7239 12.5486 15.4881 12.9965 14.5091 13.815L14.4969 13.8254C13.3934 14.7503 12.7008 16.0745 12.5706 17.5085V17.5258C12.5568 17.6833 12.5481 17.8408 12.5481 18.0017C12.5469 19.2778 12.9948 20.5137 13.8133 21.4927L13.8237 21.5048C14.7486 22.6084 16.0727 23.3009 17.5067 23.4311H17.5241C17.6816 23.445 17.8391 23.4537 18 23.4537C19.2761 23.4549 20.512 23.007 21.491 22.1885L21.5031 22.1781C22.6067 21.2532 23.2992 19.929 23.4294 18.495V18.4777C23.4433 18.3202 23.4519 18.1627 23.4519 18.0017C23.4531 16.7256 23.0053 15.4898 22.1867 14.5108Z" fill="#F16253"/>
<path d="M58.3459 14.6025L55.7584 14.5021C54.2457 14.5021 52.7999 15.3312 51.4211 16.9892V27.7304C51.4261 27.8673 51.4026 28.0037 51.3519 28.131C51.3012 28.2582 51.2246 28.3735 51.1269 28.4694C51.0304 28.5635 50.916 28.6372 50.7906 28.6862C50.6651 28.7353 50.5311 28.7587 50.3965 28.755H46.6303C46.4941 28.7614 46.358 28.7393 46.2307 28.6901C46.1035 28.6409 45.988 28.5656 45.8915 28.4692C45.7951 28.3727 45.7198 28.2572 45.6706 28.13C45.6214 28.0028 45.5993 27.8667 45.6057 27.7304V11.3764C45.6012 11.2383 45.625 11.1007 45.6756 10.9721C45.7262 10.8436 45.8025 10.7267 45.8999 10.6287C45.9952 10.5324 46.1091 10.4567 46.2347 10.4061C46.3603 10.3555 46.4949 10.3311 46.6303 10.3344H50.3965C50.5333 10.3294 50.6698 10.353 50.797 10.4036C50.9243 10.4543 51.0396 10.5309 51.1355 10.6287C51.2307 10.7279 51.305 10.8452 51.354 10.9736C51.4031 11.102 51.4259 11.239 51.4211 11.3764V12.4356C52.4353 11.678 53.5458 11.0588 54.7234 10.5941C55.7826 10.1971 57.1672 9.99868 58.8772 9.99868C59.0154 9.99379 59.1531 10.0174 59.2817 10.068C59.4103 10.1186 59.5272 10.1952 59.6249 10.2929C59.7212 10.3882 59.7969 10.5021 59.8475 10.6277C59.8981 10.7533 59.9225 10.8879 59.9192 11.0233V13.5779C59.9242 13.7148 59.9006 13.8512 59.85 13.9785C59.7993 14.1057 59.7227 14.221 59.6249 14.3169C59.526 14.4124 59.4087 14.487 59.2802 14.536C59.1517 14.5851 59.0147 14.6077 58.8772 14.6025H58.3459Z" fill="#FDFDFD"/>
<path d="M62.3302 6.82087V6.24972C62.3175 5.9915 62.3569 5.73336 62.4461 5.49071C62.5353 5.24806 62.6725 5.02588 62.8494 4.83741C63.1956 4.49125 63.6646 4.31818 64.2687 4.31818H66.3456C66.6035 4.30567 66.8613 4.34519 67.1037 4.4344C67.346 4.5236 67.5679 4.66066 67.7562 4.83741C68.1023 5.18356 68.2754 5.6526 68.2754 6.25837V6.82953C68.2881 7.08774 68.2488 7.34588 68.1595 7.58853C68.0703 7.83118 67.9331 8.05337 67.7562 8.24183C67.41 8.58799 66.941 8.76106 66.337 8.76106H64.26C64.0011 8.7811 63.7409 8.74482 63.4974 8.65473C63.2538 8.56463 63.0327 8.42286 62.8491 8.23916C62.6656 8.05545 62.524 7.83417 62.4341 7.59053C62.3443 7.3469 62.3082 7.08668 62.3285 6.82779L62.3302 6.82087ZM62.396 27.7303V11.7795C62.3909 11.6427 62.4145 11.5062 62.4652 11.379C62.5158 11.2517 62.5925 11.1364 62.6902 11.0405C62.787 10.9464 62.9016 10.8727 63.0274 10.8236C63.1531 10.7746 63.2874 10.7512 63.4223 10.7549H67.1868C67.3237 10.7495 67.4602 10.773 67.5875 10.8236C67.7148 10.8743 67.83 10.9511 67.9258 11.0491C68.0201 11.1455 68.0942 11.2597 68.1435 11.3852C68.1929 11.5107 68.2165 11.6448 68.2131 11.7795V27.7303C68.2181 27.8672 68.1946 28.0036 68.1439 28.1308C68.0933 28.2581 68.0166 28.3734 67.9189 28.4693C67.822 28.5632 67.7073 28.6369 67.5816 28.6859C67.4559 28.7349 67.3216 28.7584 67.1868 28.7549H63.4223C63.286 28.7613 63.1498 28.7392 63.0225 28.69C62.8952 28.6408 62.7796 28.5656 62.683 28.4691C62.5864 28.3727 62.511 28.2572 62.4616 28.13C62.4122 28.0028 62.3898 27.8666 62.396 27.7303Z" fill="#FDFDFD"/>
<path d="M71.3717 15.4262C71.3717 11.8066 74.291 9.99738 80.1294 9.99854C86.269 9.99854 89.3388 11.6064 89.3388 14.8222C89.3425 14.9568 89.3191 15.0909 89.2701 15.2163C89.221 15.3418 89.1473 15.4561 89.0533 15.5526C88.9573 15.6503 88.842 15.727 88.7148 15.7776C88.5875 15.8283 88.4511 15.8519 88.3142 15.8468H85.8098C85.415 15.8482 85.0254 15.7571 84.6722 15.5806C84.319 15.4042 84.0121 15.1474 83.7762 14.8308C83.2269 14.1524 82.1458 13.8132 80.5327 13.8132C78.3138 13.8132 77.2044 14.3508 77.2044 15.4262C77.2044 15.9316 77.6389 16.3505 78.5077 16.688C79.5397 17.0703 80.6021 17.365 81.6837 17.5689C82.9472 17.8248 84.1963 18.1478 85.4256 18.5364C86.6168 18.8973 87.7033 19.5404 88.5929 20.4108C89.4617 21.267 89.8962 22.351 89.8962 23.663C89.8962 27.2814 86.8148 29.0906 80.6521 29.0906C74.4894 29.0906 71.4075 27.4885 71.4064 24.2843C71.402 24.1468 71.4259 24.0098 71.4766 23.8818C71.5272 23.7539 71.6036 23.6377 71.7009 23.5404C71.7982 23.4431 71.9144 23.3667 72.0424 23.3161C72.1703 23.2654 72.3073 23.2415 72.4448 23.2458H74.9492C75.3442 23.2445 75.734 23.3359 76.0872 23.5126C76.4404 23.6894 76.7472 23.9466 76.9829 24.2635C77.531 24.9397 78.6121 25.2783 80.2264 25.2795C82.7925 25.2795 84.0756 24.7418 84.0756 23.6664C84.0756 23.1633 83.6412 22.7428 82.7723 22.4047C81.7363 22.0211 80.6714 21.7207 79.5877 21.5064C78.3335 21.2433 77.0867 20.9185 75.8475 20.532C74.6558 20.1723 73.569 19.5292 72.6802 18.6576C72.2512 18.2382 71.9135 17.7347 71.6883 17.1786C71.4632 16.6225 71.3554 16.0259 71.3717 15.4262Z" fill="#FDFDFD"/>
<path d="M93.0046 27.7304V5.69602C93 5.5578 93.0235 5.42008 93.0738 5.29124C93.1241 5.1624 93.2001 5.04515 93.2971 4.9466C93.3928 4.85049 93.5071 4.77484 93.6329 4.72426C93.7588 4.67368 93.8936 4.64922 94.0292 4.65237H97.7936C97.9292 4.64922 98.0641 4.67368 98.1899 4.72426C98.3158 4.77484 98.43 4.85049 98.5258 4.9466C98.6231 5.045 98.6994 5.16219 98.75 5.29103C98.8006 5.41988 98.8244 5.55767 98.82 5.69602V12.4356C100.747 10.811 102.8 9.99872 104.98 9.99872C107.159 9.99872 108.932 10.6622 110.298 11.9891C111.666 13.3183 112.349 15.3497 112.349 18.0831V27.7304C112.353 27.8658 112.328 28.0004 112.278 28.126C112.227 28.2516 112.151 28.3656 112.055 28.4608C111.957 28.5585 111.841 28.6351 111.712 28.6857C111.583 28.7363 111.446 28.7599 111.307 28.7551H107.559C107.423 28.7576 107.289 28.7329 107.164 28.6823C107.038 28.6318 106.924 28.5564 106.828 28.4607C106.733 28.3651 106.657 28.2511 106.607 28.1256C106.556 28.0001 106.531 27.8657 106.534 27.7304V18.0831C106.534 15.4039 105.464 14.0649 103.323 14.066C101.924 14.066 100.424 14.8668 98.8234 16.4683V27.7304C98.826 27.8659 98.8013 28.0004 98.7506 28.126C98.6999 28.2516 98.6244 28.3657 98.5285 28.4614C98.4327 28.557 98.3185 28.6324 98.1928 28.6828C98.0671 28.7333 97.9325 28.7579 97.7971 28.7551H94.0292C93.8938 28.7581 93.7592 28.7337 93.6335 28.6833C93.5078 28.6329 93.3936 28.5576 93.2979 28.4618C93.2021 28.366 93.1267 28.2519 93.0763 28.1262C93.0259 28.0005 93.0015 27.8658 93.0046 27.7304Z" fill="#FDFDFD"/>
<path d="M116.484 6.82106V6.24991C116.472 5.99173 116.512 5.7337 116.601 5.49111C116.69 5.24852 116.827 5.02629 117.003 4.8376C117.35 4.49144 117.819 4.31837 118.424 4.31837H120.501C120.76 4.30602 121.018 4.34561 121.26 4.4348C121.503 4.52399 121.725 4.66096 121.914 4.8376C122.26 5.18375 122.433 5.65279 122.433 6.25856V6.82972C122.446 7.08793 122.406 7.34607 122.317 7.58872C122.228 7.83137 122.091 8.05356 121.914 8.24202C121.568 8.58818 121.098 8.76125 120.494 8.76125H118.418C118.158 8.78156 117.898 8.74548 117.654 8.6555C117.411 8.56552 117.189 8.42378 117.005 8.24005C116.822 8.05631 116.68 7.83494 116.59 7.59117C116.5 7.34741 116.464 7.08703 116.484 6.82798V6.82106ZM116.552 27.7305V11.7797C116.546 11.6428 116.57 11.5063 116.62 11.379C116.671 11.2517 116.748 11.1364 116.846 11.0407C116.942 10.9467 117.057 10.8729 117.182 10.8239C117.308 10.7748 117.442 10.7514 117.576 10.7551H121.341C121.478 10.7497 121.615 10.7731 121.742 10.8238C121.87 10.8744 121.985 10.9513 122.082 11.0493C122.176 11.1458 122.249 11.2601 122.298 11.3856C122.347 11.511 122.371 11.6451 122.367 11.7797V27.7305C122.372 27.8674 122.349 28.0038 122.298 28.131C122.247 28.2583 122.171 28.3736 122.073 28.4695C121.976 28.5636 121.861 28.6373 121.736 28.6864C121.61 28.7354 121.476 28.7588 121.341 28.7551H117.576C117.44 28.7615 117.304 28.7394 117.177 28.6902C117.05 28.641 116.934 28.5657 116.838 28.4693C116.741 28.3728 116.666 28.2573 116.617 28.13C116.567 28.0028 116.545 27.8667 116.552 27.7305Z" fill="#FDFDFD"/>
</svg>
