<svg width="36" height="36" viewBox="0 0 36 36" fill="none" xmlns="http://www.w3.org/2000/svg">
<path d="M18 0C14.4399 0 10.9598 1.05568 7.99974 3.03355C5.03966 5.01141 2.73255 7.82262 1.37017 11.1117C0.00779714 14.4008 -0.34866 18.02 0.345874 21.5116C1.04041 25.0033 2.75474 28.2106 5.27208 30.7279C7.78943 33.2453 10.9967 34.9596 14.4884 35.6541C17.98 36.3487 21.5992 35.9922 24.8883 34.6298C28.1774 33.2674 30.9886 30.9603 32.9665 28.0003C34.9443 25.0402 36 21.5601 36 18C36 15.6362 35.5344 13.2956 34.6298 11.1117C33.7252 8.92783 32.3994 6.94353 30.7279 5.27207C29.0565 3.60062 27.0722 2.27475 24.8883 1.37016C22.7044 0.465579 20.3638 0 18 0V0ZM30.4823 18.4777H23.4294V18.495L29.295 24.3606L26.4894 27.1644L21.5031 22.1781L21.4892 22.1902V30.484H17.5258V23.4311H17.5067L11.6429 29.295L8.83731 26.4911L13.8237 21.5065C13.8206 21.5012 13.8165 21.4964 13.8115 21.4927H5.5177V17.5258H12.5688C12.5688 17.5258 12.5688 17.5154 12.5688 17.5085L6.70154 11.6429L9.50539 8.83903L14.4935 13.8254L14.5056 13.8133V5.51942H18.4725V12.5723H18.4881L24.3554 6.70846L27.1592 9.5123L22.1729 14.4969L22.1833 14.5108H30.4788L30.4823 18.4777Z" fill="#F16253"/>
</svg>
