<svg width="123" height="36" viewBox="0 0 123 36" fill="none" xmlns="http://www.w3.org/2000/svg">
<path d="M18 0C14.4399 0 10.9598 1.05568 7.99974 3.03355C5.03966 5.01141 2.73255 7.82262 1.37017 11.1117C0.00779714 14.4008 -0.34866 18.02 0.345874 21.5116C1.04041 25.0033 2.75474 28.2106 5.27208 30.7279C7.78943 33.2453 10.9967 34.9596 14.4884 35.6541C17.98 36.3487 21.5992 35.9922 24.8883 34.6298C28.1774 33.2674 30.9886 30.9603 32.9665 28.0003C34.9443 25.0402 36 21.5601 36 18C36 15.6362 35.5344 13.2956 34.6298 11.1117C33.7252 8.92783 32.3994 6.94353 30.7279 5.27207C29.0565 3.60062 27.0722 2.27475 24.8883 1.37016C22.7044 0.465579 20.3638 0 18 0ZM30.4823 18.4777H23.4294V18.495L29.295 24.3606L26.4894 27.1644L21.5031 22.1781L21.4892 22.1902V30.484H17.5258V23.4311H17.5067L11.6429 29.295L8.83731 26.4911L13.8237 21.5065C13.8206 21.5012 13.8165 21.4964 13.8115 21.4927H5.5177V17.5258H12.5688C12.5688 17.5258 12.5688 17.5154 12.5688 17.5085L6.70154 11.6429L9.50539 8.83903L14.4935 13.8254L14.5056 13.8133V5.51942H18.4725V12.5723H18.4881L24.3554 6.70846L27.1592 9.5123L22.1729 14.4969L22.1833 14.5108H30.4788L30.4823 18.4777Z" fill="white"/>
<path d="M22.1867 14.5108L22.1764 14.4987C21.2514 13.3951 19.9273 12.7025 18.4933 12.5723H18.476C18.3185 12.5585 18.161 12.5498 18 12.5498C16.7239 12.5486 15.4881 12.9965 14.5091 13.815L14.4969 13.8254C13.3934 14.7503 12.7008 16.0745 12.5706 17.5085V17.5258C12.5568 17.6833 12.5481 17.8408 12.5481 18.0017C12.5469 19.2778 12.9948 20.5137 13.8133 21.4927L13.8237 21.5048C14.7486 22.6084 16.0727 23.3009 17.5067 23.4311H17.5241C17.6816 23.445 17.8391 23.4537 18 23.4537C19.2761 23.4549 20.512 23.007 21.491 22.1885L21.5031 22.1781C22.6067 21.2532 23.2992 19.929 23.4294 18.495V18.4777C23.4433 18.3202 23.4519 18.1627 23.4519 18.0017C23.4531 16.7256 23.0053 15.4898 22.1867 14.5108Z" fill="white"/>
<path d="M58.3459 16.2865L55.7585 16.1861C54.2458 16.1861 52.8 17.0151 51.4211 18.6732V29.4144C51.4262 29.5512 51.4026 29.6877 51.352 29.8149C51.3013 29.9422 51.2247 30.0574 51.1269 30.1534C51.0305 30.2474 50.9161 30.3211 50.7907 30.3702C50.6652 30.4192 50.5312 30.4426 50.3965 30.439H46.6304C46.4941 30.4454 46.358 30.4233 46.2308 30.3741C46.1036 30.3248 45.988 30.2496 45.8916 30.1531C45.7951 30.0567 45.7199 29.9411 45.6707 29.8139C45.6215 29.6867 45.5993 29.5506 45.6058 29.4144V13.0603C45.6013 12.9222 45.6251 12.7847 45.6757 12.6561C45.7263 12.5275 45.8026 12.4106 45.9 12.3126C45.9953 12.2164 46.1092 12.1407 46.2348 12.0901C46.3604 12.0395 46.495 12.0151 46.6304 12.0184H50.3965C50.5334 12.0134 50.6698 12.0369 50.7971 12.0876C50.9243 12.1382 51.0396 12.2149 51.1356 12.3126C51.2307 12.4118 51.305 12.5291 51.3541 12.6576C51.4032 12.786 51.426 12.9229 51.4211 13.0603V14.1196C52.4354 13.362 53.5459 12.7427 54.7234 12.278C55.7827 11.8811 57.1673 11.6826 58.8773 11.6826C59.0154 11.6778 59.1531 11.7014 59.2817 11.752C59.4104 11.8026 59.5272 11.8791 59.625 11.9769C59.7212 12.0721 59.797 12.1861 59.8476 12.3117C59.8982 12.4373 59.9225 12.5719 59.9192 12.7072V15.2619C59.9243 15.3987 59.9007 15.5352 59.85 15.6624C59.7994 15.7897 59.7227 15.905 59.625 16.0009C59.526 16.0964 59.4088 16.1709 59.2803 16.22C59.1518 16.2691 59.0147 16.2917 58.8773 16.2865H58.3459Z" fill="white"/>
<path d="M62.3302 8.50495V7.9338C62.3175 7.67558 62.3569 7.41745 62.4461 7.1748C62.5353 6.93215 62.6725 6.70996 62.8494 6.52149C63.1956 6.17534 63.6646 6.00226 64.2687 6.00226H66.3456C66.6035 5.98975 66.8613 6.02927 67.1037 6.11848C67.346 6.20768 67.5679 6.34474 67.7562 6.52149C68.1023 6.86764 68.2754 7.33668 68.2754 7.94245V8.51361C68.2881 8.77182 68.2488 9.02996 68.1595 9.27261C68.0703 9.51526 67.9331 9.73745 67.7562 9.92592C67.41 10.2721 66.941 10.4451 66.337 10.4451H64.26C64.0011 10.4652 63.7409 10.4289 63.4974 10.3388C63.2538 10.2487 63.0327 10.1069 62.8491 9.92324C62.6656 9.73953 62.524 9.51825 62.4341 9.27462C62.3443 9.03098 62.3082 8.77077 62.3285 8.51187L62.3302 8.50495ZM62.396 29.4144V13.4636C62.3909 13.3267 62.4145 13.1903 62.4652 13.0631C62.5158 12.9358 62.5925 12.8205 62.6902 12.7246C62.787 12.6305 62.9016 12.5568 63.0274 12.5077C63.1531 12.4587 63.2874 12.4353 63.4223 12.439H67.1868C67.3237 12.4336 67.4602 12.457 67.5875 12.5077C67.7148 12.5584 67.83 12.6352 67.9258 12.7332C68.0201 12.8295 68.0942 12.9438 68.1435 13.0693C68.1929 13.1947 68.2165 13.3288 68.2131 13.4636V29.4144C68.2181 29.5513 68.1946 29.6877 68.1439 29.8149C68.0933 29.9422 68.0166 30.0575 67.9189 30.1534C67.822 30.2473 67.7073 30.3209 67.5816 30.37C67.4559 30.419 67.3216 30.4425 67.1868 30.439H63.4223C63.286 30.4454 63.1498 30.4233 63.0225 30.3741C62.8952 30.3249 62.7796 30.2497 62.683 30.1532C62.5864 30.0568 62.511 29.9413 62.4616 29.8141C62.4122 29.6868 62.3898 29.5507 62.396 29.4144Z" fill="white"/>
<path d="M71.3717 17.1104C71.3717 13.4908 74.291 11.6815 80.1294 11.6827C86.269 11.6827 89.3388 13.2906 89.3388 16.5063C89.3425 16.641 89.3191 16.775 89.2701 16.9005C89.221 17.0259 89.1473 17.1403 89.0533 17.2367C88.9573 17.3345 88.842 17.4111 88.7148 17.4618C88.5875 17.5124 88.4511 17.536 88.3142 17.5309H85.8098C85.415 17.5324 85.0254 17.4412 84.6722 17.2648C84.319 17.0883 84.0121 16.8315 83.7762 16.515C83.2269 15.8365 82.1458 15.4973 80.5327 15.4973C78.3138 15.4973 77.2044 16.035 77.2044 17.1104C77.2044 17.6158 77.6389 18.0346 78.5077 18.3721C79.5397 18.7544 80.6021 19.0491 81.6837 19.2531C82.9472 19.5089 84.1963 19.8319 85.4256 20.2206C86.6168 20.5815 87.7033 21.2245 88.5929 22.095C89.4617 22.9511 89.8962 24.0352 89.8962 25.3471C89.8962 28.9656 86.8148 30.7748 80.6521 30.7748C74.4894 30.7748 71.4075 29.1727 71.4064 25.9684C71.402 25.8309 71.4259 25.6939 71.4766 25.566C71.5272 25.438 71.6036 25.3218 71.7009 25.2245C71.7982 25.1272 71.9144 25.0509 72.0424 25.0002C72.1703 24.9496 72.3073 24.9257 72.4448 24.93H74.9492C75.3442 24.9286 75.734 25.02 76.0872 25.1968C76.4404 25.3735 76.7472 25.6307 76.9829 25.9477C77.531 26.6238 78.6121 26.9625 80.2264 26.9636C82.7925 26.9636 84.0756 26.4259 84.0756 25.3506C84.0756 24.8475 83.6412 24.4269 82.7723 24.0888C81.7363 23.7053 80.6714 23.4049 79.5877 23.1906C78.3335 22.9275 77.0867 22.6027 75.8475 22.2161C74.6558 21.8565 73.569 21.2133 72.6802 20.3417C72.2512 19.9223 71.9135 19.4188 71.6883 18.8628C71.4632 18.3067 71.3554 17.7101 71.3717 17.1104Z" fill="white"/>
<path d="M93.0046 29.4144V7.37997C93 7.24174 93.0235 7.10402 93.0738 6.97519C93.1241 6.84635 93.2001 6.72909 93.2971 6.63055C93.3928 6.53443 93.5071 6.45879 93.6329 6.40821C93.7588 6.35763 93.8936 6.33316 94.0292 6.33631H97.7936C97.9292 6.33316 98.0641 6.35763 98.1899 6.40821C98.3158 6.45879 98.43 6.53443 98.5258 6.63055C98.6231 6.72894 98.6994 6.84614 98.75 6.97498C98.8006 7.10382 98.8244 7.24162 98.82 7.37997V14.1196C100.747 12.495 102.8 11.6827 104.98 11.6827C107.159 11.6827 108.932 12.3461 110.298 13.673C111.666 15.0023 112.349 17.0336 112.349 19.7671V29.4144C112.353 29.5498 112.328 29.6844 112.278 29.81C112.227 29.9356 112.151 30.0495 112.055 30.1448C111.957 30.2425 111.841 30.319 111.712 30.3697C111.583 30.4203 111.446 30.4439 111.307 30.439H107.559C107.423 30.4416 107.289 30.4169 107.164 30.3663C107.038 30.3157 106.924 30.2403 106.828 30.1447C106.733 30.049 106.657 29.935 106.607 29.8095C106.556 29.684 106.531 29.5497 106.534 29.4144V19.7671C106.534 17.0879 105.464 15.7488 103.323 15.75C101.924 15.75 100.424 16.5507 98.8234 18.1523V29.4144C98.826 29.5498 98.8013 29.6843 98.7506 29.8099C98.6999 29.9355 98.6244 30.0496 98.5285 30.1453C98.4327 30.241 98.3185 30.3163 98.1928 30.3668C98.0671 30.4173 97.9325 30.4418 97.7971 30.439H94.0292C93.8938 30.4421 93.7592 30.4177 93.6335 30.3673C93.5078 30.3169 93.3936 30.2415 93.2979 30.1458C93.2021 30.05 93.1267 29.9358 93.0763 29.8101C93.0259 29.6844 93.0015 29.5498 93.0046 29.4144Z" fill="white"/>
<path d="M116.484 8.50496V7.93381C116.472 7.67563 116.512 7.4176 116.601 7.17501C116.69 6.93242 116.827 6.71019 117.003 6.5215C117.35 6.17534 117.819 6.00227 118.424 6.00227H120.501C120.76 5.98992 121.018 6.02951 121.26 6.1187C121.503 6.20789 121.725 6.34486 121.914 6.5215C122.26 6.86765 122.433 7.33669 122.433 7.94246V8.51361C122.446 8.77183 122.406 9.02997 122.317 9.27262C122.228 9.51527 122.091 9.73745 121.914 9.92592C121.568 10.2721 121.098 10.4452 120.494 10.4452H118.418C118.158 10.4655 117.898 10.4294 117.654 10.3394C117.411 10.2494 117.189 10.1077 117.005 9.92395C116.822 9.74021 116.68 9.51884 116.59 9.27507C116.5 9.0313 116.464 8.77093 116.484 8.51188V8.50496ZM116.552 29.4144V13.4636C116.546 13.3267 116.57 13.1902 116.62 13.0629C116.671 12.9356 116.748 12.8203 116.846 12.7246C116.942 12.6306 117.057 12.5568 117.182 12.5078C117.308 12.4587 117.442 12.4353 117.576 12.439H121.341C121.478 12.4336 121.615 12.457 121.742 12.5077C121.87 12.5583 121.985 12.6352 122.082 12.7332C122.176 12.8297 122.249 12.944 122.298 13.0695C122.347 13.1949 122.371 13.329 122.367 13.4636V29.4144C122.372 29.5513 122.349 29.6877 122.298 29.8149C122.247 29.9422 122.171 30.0575 122.073 30.1534C121.976 30.2475 121.861 30.3212 121.736 30.3703C121.61 30.4193 121.476 30.4427 121.341 30.439H117.576C117.44 30.4454 117.304 30.4233 117.177 30.3741C117.05 30.3249 116.934 30.2496 116.838 30.1532C116.741 30.0567 116.666 29.9412 116.617 29.8139C116.567 29.6867 116.545 29.5506 116.552 29.4144Z" fill="white"/>
</svg>
